<svg xmlns="http://www.w3.org/2000/svg" viewBox="0 0 920 240" width="920" height="240" role="img" aria-label="DiosesDrakes Banner">
  <defs>
    <linearGradient id="bFondo" x1="0" y1="0" x2="1" y2="1">
      <stop offset="0%" stop-color="#070B14"/>
      <stop offset="100%" stop-color="#0F172A"/>
    </linearGradient>
    <linearGradient id="acG" x1="0" y1="0" x2="1" y2="1">
      <stop offset="0%" stop-color="#F59E0B"/>
      <stop offset="100%" stop-color="#FDE68A"/>
    </linearGradient>
    <radialGradient id="bHalo" cx="50%" cy="50%" r="50%">
      <stop offset="0%" stop-color="#F59E0B" stop-opacity="0.25"/>
      <stop offset="100%" stop-color="#F59E0B" stop-opacity="0"/>
    </radialGradient>
  </defs>
  <rect width="920" height="240" rx="16" fill="url(#bFondo)"/>
  <rect width="920" height="240" rx="16" fill="url(#bHalo)"/>
  <rect x="2" y="2" width="916" height="236" rx="14" fill="none" stroke="url(#acG)" stroke-width="2" opacity="0.4"/>
  
  <g transform="translate(460,70) scale(1.6)">

    <circle cx="0" cy="0" r="28" fill="none" stroke="url(#acG)" stroke-width="4"/>
    <path d="M0,-24 L6,-6 L24,0 L6,6 L0,24 L-6,6 L-24,0 L-6,-6 Z" fill="#F59E0B"/>
    <circle cx="0" cy="0" r="6" fill="#FDE68A"/>
  </g>
  
  <text x="460" y="152" text-anchor="middle" font-family="'Segoe UI', system-ui, -apple-system, sans-serif" font-weight="900" font-size="28" fill="#F8FAFC" letter-spacing="2">
    DIOSESDRAKES
  </text>
  <text x="460" y="184" text-anchor="middle" font-family="'Segoe UI', system-ui, -apple-system, sans-serif" font-weight="700" font-size="12" fill="#FDE68A" letter-spacing="3" opacity="0.9">
    PANTEÓN DIVINO · PODERES ANCESTRALES · TEMPLOS
  </text>
  
  <g transform="translate(460, 210)">
    <rect x="-180" y="-12" width="110" height="20" rx="4" fill="#1E293B" stroke="#F59E0B" stroke-width="1"/>
    <text x="-125" y="2" text-anchor="middle" font-family="sans-serif" font-size="10" font-weight="700" fill="#E2E8F0">DRAKES LABS</text>
    
    <rect x="-55" y="-12" width="110" height="20" rx="4" fill="#1E293B" stroke="#FDE68A" stroke-width="1"/>
    <text x="0" y="2" text-anchor="middle" font-family="sans-serif" font-size="10" font-weight="700" fill="#E2E8F0">PAPER 1.21.11</text>
    
    <rect x="70" y="-12" width="110" height="20" rx="4" fill="#1E293B" stroke="#F59E0B" stroke-width="1"/>
    <text x="125" y="2" text-anchor="middle" font-family="sans-serif" font-size="10" font-weight="700" fill="#E2E8F0">JAVA 21</text>
  </g>
</svg>